{
  "accessors": [
    {
      "bufferView": 2,
      "componentType": 5126,
      "count": 65532,
      "max": [
        13.70102596282959,
        8.4728145599365234,
        7.9941458702087402
      ],
      "min": [
        0.011559009552001953,
        0.61404514312744141,
        0
      ],
      "type": "VEC3"
    },
    {
      "bufferView": 2,
      "byteOffset": 786384,
      "componentType": 5126,
      "count": 65532,
      "max": [
        0.98863017559051514,
        0.99996203184127808,
        0.99996769428253174
      ],
      "min": [
        -0.9998093843460083,
        -0.9996146559715271,
        -0.99999815225601196
      ],
      "type": "VEC3"
    },
    {
      "bufferView": 3,
      "componentType": 5126,
      "count": 65532,
      "max": [
        0.99971175193786621,
        0.99998927116394043,
        0.99996429681777954,
        1
      ],
      "min": [
        -0.99998515844345093,
        -0.99999040365219116,
        -0.99985837936401367,
        -1
      ],
      "type": "VEC4"
    },
    {
      "bufferView": 1,
      "componentType": 5126,
      "count": 65532,
      "max": [
        0.98641598224639893,
        0.99980300664901733
      ],
      "min": [
        0.0033799998927861452,
        0.0034600000362843275
      ],
      "type": "VEC2"
    },
    {
      "bufferView": 0,
      "componentType": 5125,
      "count": 347037,
      "max": [
        65531
      ],
      "min": [
        0
      ],
      "type": "SCALAR"
    },
    {
      "bufferView": 2,
      "byteOffset": 1572768,
      "componentType": 5126,
      "count": 65532,
      "max": [
        14.306495666503906,
        8.7322044372558594,
        6.6132802963256836
      ],
      "min": [
        0,
        0.12915229797363281,
        0.86006307601928711
      ],
      "type": "VEC3"
    },
    {
      "bufferView": 2,
      "byteOffset": 2359152,
      "componentType": 5126,
      "count": 65532,
      "max": [
        0.99950695037841797,
        0.99995595216751099,
        0.9999498724937439
      ],
      "min": [
        -0.99995797872543335,
        -0.99998420476913452,
        -0.99999421834945679
      ],
      "type": "VEC3"
    },
    {
      "bufferView": 3,
      "byteOffset": 1048512,
      "componentType": 5126,
      "count": 65532,
      "max": [
        0.99953693151473999,
        0.99989873170852661,
        0.99997752904891968,
        1
      ],
      "min": [
        -0.99994784593582153,
        -0.99980688095092773,
        -0.99997115135192871,
        -1
      ],
      "type": "VEC4"
    },
    {
      "bufferView": 1,
      "byteOffset": 524256,
      "componentType": 5126,
      "count": 65532,
      "max": [
        0.99683099985122681,
        0.99917501211166382
      ],
      "min": [
        0.0027650000993162394,
        0.0037239999510347843
      ],
      "type": "VEC2"
    },
    {
      "bufferView": 0,
      "byteOffset": 1388148,
      "componentType": 5125,
      "count": 312903,
      "max": [
        65531
      ],
      "min": [
        0
      ],
      "type": "SCALAR"
    },
    {
      "bufferView": 2,
      "byteOffset": 3145536,
      "componentType": 5126,
      "count": 65532,
      "max": [
        14.304350852966309,
        8.7320890426635742,
        7.7732000350952148
      ],
      "min": [
        0,
        0,
        2.244391918182373
      ],
      "type": "VEC3"
    },
    {
      "bufferView": 2,
      "byteOffset": 3931920,
      "componentType": 5126,
      "count": 65532,
      "max": [
        0.99950695037841797,
        0.99997967481613159,
        0.99997657537460327
      ],
      "min": [
        -0.99997830390930176,
        -0.99997943639755249,
        -0.99979239702224731
      ],
      "type": "VEC3"
    },
    {
      "bufferView": 3,
      "byteOffset": 2097024,
      "componentType": 5126,
      "count": 65532,
      "max": [
        0.99999463558197021,
        0.99997043609619141,
        0.99996203184127808,
        1
      ],
      "min": [
        -0.999320387840271,
        -0.99996793270111084,
        -0.99997115135192871,
        -1
      ],
      "type": "VEC4"
    },
    {
      "bufferView": 1,
      "byteOffset": 1048512,
      "componentType": 5126,
      "count": 65532,
      "max": [
        0.99687600135803223,
        0.99928402900695801
      ],
      "min": [
        0.0025520001072436571,
        0.0024870000779628754
      ],
      "type": "VEC2"
    },
    {
      "bufferView": 0,
      "byteOffset": 2639760,
      "componentType": 5125,
      "count": 321633,
      "max": [
        65531
      ],
      "min": [
        0
      ],
      "type": "SCALAR"
    },
    {
      "bufferView": 2,
      "byteOffset": 4718304,
      "componentType": 5126,
      "count": 51854,
      "max": [
        14.293148994445801,
        8.3704795837402344,
        8.1262779235839844
      ],
      "min": [
        2.0032758712768555,
        0.31256628036499023,
        0.08746790885925293
      ],
      "type": "VEC3"
    },
    {
      "bufferView": 2,
      "byteOffset": 5340552,
      "componentType": 5126,
      "count": 51854,
      "max": [
        0.99995630979537964,
        0.99993568658828735,
        0.99999099969863892
      ],
      "min": [
        -0.99997919797897339,
        -0.99996674060821533,
        -0.99720746278762817
      ],
      "type": "VEC3"
    },
    {
      "bufferView": 3,
      "byteOffset": 3145536,
      "componentType": 5126,
      "count": 51854,
      "max": [
        0.99999463558197021,
        0.99999570846557617,
        0.99985527992248535,
        1
      ],
      "min": [
        -0.99997633695602417,
        -0.99979227781295776,
        -0.99997419118881226,
        -1
      ],
      "type": "VEC4"
    },
    {
      "bufferView": 1,
      "byteOffset": 1572768,
      "componentType": 5126,
      "count": 51854,
      "max": [
        0.98817998170852661,
        0.99956297874450684
      ],
      "min": [
        0.0028689999599009752,
        0.011731999926269054
      ],
      "type": "VEC2"
    },
    {
      "bufferView": 0,
      "byteOffset": 3926292,
      "componentType": 5125,
      "count": 252327,
      "max": [
        51853
      ],
      "min": [
        0
      ],
      "type": "SCALAR"
    }
  ],
  "asset": {
    "generator": "Sketchfab (OSG glTF plugin)",
    "version": "2.0"
  },
  "bufferViews": [
    {
      "buffer": 0,
      "byteLength": 4935600,
      "byteOffset": 0,
      "name": "floatBufferViews",
      "target": 34963
    },
    {
      "buffer": 0,
      "byteLength": 1987600,
      "byteOffset": 4935600,
      "byteStride": 8,
      "name": "floatBufferViews",
      "target": 34962
    },
    {
      "buffer": 0,
      "byteLength": 5962800,
      "byteOffset": 6923200,
      "byteStride": 12,
      "name": "floatBufferViews",
      "target": 34962
    },
    {
      "buffer": 0,
      "byteLength": 3975200,
      "byteOffset": 12886000,
      "byteStride": 16,
      "name": "floatBufferViews",
      "target": 34962
    }
  ],
  "buffers": [
    {
      "byteLength": 16861200,
      "uri": "scene.bin"
    }
  ],
  "extensionsRequired": [
    "KHR_materials_pbrSpecularGlossiness"
  ],
  "extensionsUsed": [
    "KHR_materials_pbrSpecularGlossiness"
  ],
  "images": [
    {
      "uri": "textures/material_0_diffuse.jpeg"
    }
  ],
  "materials": [
    {
      "doubleSided": true,
      "emissiveFactor": [
        0,
        0,
        0
      ],
      "extensions": {
        "KHR_materials_pbrSpecularGlossiness": {
          "diffuseFactor": [
            1,
            1,
            1,
            1
          ],
          "diffuseTexture": {
            "index": 0,
            "texCoord": 0
          },
          "glossinessFactor": 0,
          "specularFactor": [
            0,
            0,
            0
          ]
        }
      },
      "name": "material_0",
      "occlusionFactor": 1
    }
  ],
  "meshes": [
    {
      "primitives": [
        {
          "attributes": {
            "NORMAL": 1,
            "POSITION": 0,
            "TANGENT": 2,
            "TEXCOORD_0": 3
          },
          "indices": 4,
          "material": 0,
          "mode": 4
        }
      ]
    },
    {
      "primitives": [
        {
          "attributes": {
            "NORMAL": 6,
            "POSITION": 5,
            "TANGENT": 7,
            "TEXCOORD_0": 8
          },
          "indices": 9,
          "material": 0,
          "mode": 4
        }
      ]
    },
    {
      "primitives": [
        {
          "attributes": {
            "NORMAL": 11,
            "POSITION": 10,
            "TANGENT": 12,
            "TEXCOORD_0": 13
          },
          "indices": 14,
          "material": 0,
          "mode": 4
        }
      ]
    },
    {
      "primitives": [
        {
          "attributes": {
            "NORMAL": 16,
            "POSITION": 15,
            "TANGENT": 17,
            "TEXCOORD_0": 18
          },
          "indices": 19,
          "material": 0,
          "mode": 4
        }
      ]
    }
  ],
  "nodes": [
    {
      "children": [
        1
      ],
      "name": "RootNode (gltf orientation matrix)",
      "rotation": [
        -0.70710678118654746,
        -0,
        -0,
        0.70710678118654757
      ]
    },
    {
      "children": [
        2
      ],
      "matrix": [
        0.063231989741325378,
        -0.22862119972705841,
        -0.97145974636077881,
        0,
        0.59953439235687256,
        -0.76948612928390503,
        0.22011266648769379,
        0,
        -0.79784727096557617,
        -0.59634166955947876,
        0.088410131633281708,
        0,
        -7.5083999035996385e-06,
        9.6880000910459785e-07,
        -7.1991998993325979e-06,
        1
      ],
      "name": "RootNode (model correction matrix)"
    },
    {
      "children": [
        3
      ],
      "matrix": [
        1,
        0,
        0,
        0,
        0,
        1,
        0,
        0,
        0,
        0,
        1,
        0,
        -7.1532478332519531,
        -4.3661022186279297,
        -4.0631389617919922,
        1
      ],
      "name": "model.obj.cleaner.gles"
    },
    {
      "children": [
        4,
        5,
        6,
        7
      ],
      "name": "Geode"
    },
    {
      "mesh": 0,
      "name": ""
    },
    {
      "mesh": 1,
      "name": ""
    },
    {
      "mesh": 2,
      "name": ""
    },
    {
      "mesh": 3,
      "name": ""
    }
  ],
  "samplers": [
    {
      "magFilter": 9729,
      "minFilter": 9987,
      "wrapS": 10497,
      "wrapT": 10497
    }
  ],
  "scene": 0,
  "scenes": [
    {
      "name": "OSG_Scene",
      "nodes": [
        0
      ]
    }
  ],
  "textures": [
    {
      "sampler": 0,
      "source": 0
    }
  ]
}

