{
  "accessors": [
    {
      "bufferView": 2,
      "componentType": 5126,
      "count": 48868,
      "max": [
        3.2193200588226318,
        5.1935601234436035,
        12.928879737854004
      ],
      "min": [
        -5.0713701248168945,
        -7.0022602081298828,
        -11.960470199584961
      ],
      "type": "VEC3"
    },
    {
      "bufferView": 2,
      "byteOffset": 586416,
      "componentType": 5126,
      "count": 48868,
      "max": [
        0.99998915195465088,
        0.99999535083770752,
        0.99788308143615723
      ],
      "min": [
        -0.9999929666519165,
        -0.98169523477554321,
        -0.91001945734024048
      ],
      "type": "VEC3"
    },
    {
      "bufferView": 3,
      "componentType": 5126,
      "count": 48868,
      "max": [
        0.99771678447723389,
        0.95505058765411377,
        0.81089657545089722,
        1
      ],
      "min": [
        -0.9974137544631958,
        -0.9288712739944458,
        -0.99999982118606567,
        -1
      ],
      "type": "VEC4"
    },
    {
      "bufferView": 1,
      "componentType": 5126,
      "count": 48868,
      "max": [
        0.96706002950668335,
        0.99606001377105713
      ],
      "min": [
        0.0020600000862032175,
        0.1718599945306778
      ],
      "type": "VEC2"
    },
    {
      "bufferView": 0,
      "componentType": 5125,
      "count": 49008,
      "max": [
        48867
      ],
      "min": [
        0
      ],
      "type": "SCALAR"
    },
    {
      "bufferView": 2,
      "byteOffset": 1172832,
      "componentType": 5126,
      "count": 65532,
      "max": [
        3.5364100933074951,
        5.1730198860168457,
        12.972060203552246
      ],
      "min": [
        -4.961209774017334,
        -7.0545201301574707,
        -12.054960250854492
      ],
      "type": "VEC3"
    },
    {
      "bufferView": 2,
      "byteOffset": 1959216,
      "componentType": 5126,
      "count": 65532,
      "max": [
        0.99999368190765381,
        0.99995988607406616,
        0.99972093105316162
      ],
      "min": [
        -0.99996501207351685,
        -0.99989014863967896,
        -0.99952620267868042
      ],
      "type": "VEC3"
    },
    {
      "bufferView": 3,
      "byteOffset": 781888,
      "componentType": 5126,
      "count": 65532,
      "max": [
        0.99996912479400635,
        0.99901461601257324,
        0.79995542764663696,
        1
      ],
      "min": [
        -0.99999266862869263,
        -0.99911844730377197,
        -0.99999886751174927,
        -1
      ],
      "type": "VEC4"
    },
    {
      "bufferView": 1,
      "byteOffset": 390944,
      "componentType": 5126,
      "count": 65532,
      "max": [
        0.87913000583648682,
        0.99787002801895142
      ],
      "min": [
        0.0020000000949949026,
        0.041420001536607742
      ],
      "type": "VEC2"
    },
    {
      "bufferView": 0,
      "byteOffset": 196032,
      "componentType": 5125,
      "count": 65673,
      "max": [
        65531
      ],
      "min": [
        0
      ],
      "type": "SCALAR"
    },
    {
      "bufferView": 2,
      "byteOffset": 2745600,
      "componentType": 5126,
      "count": 65534,
      "max": [
        3.5364100933074951,
        5.1707100868225098,
        12.971980094909668
      ],
      "min": [
        -4.9792900085449219,
        -7.0545201301574707,
        -12.053319931030273
      ],
      "type": "VEC3"
    },
    {
      "bufferView": 2,
      "byteOffset": 3532008,
      "componentType": 5126,
      "count": 65534,
      "max": [
        0.99999463558197021,
        0.99994581937789917,
        0.9965662956237793
      ],
      "min": [
        -0.99984467029571533,
        -0.99990522861480713,
        -0.81650090217590332
      ],
      "type": "VEC3"
    },
    {
      "bufferView": 3,
      "byteOffset": 1830400,
      "componentType": 5126,
      "count": 65534,
      "max": [
        0.95810312032699585,
        0.8685004711151123,
        0.78767621517181396,
        1
      ],
      "min": [
        -0.93225008249282837,
        -0.9479982852935791,
        -0.9999968409538269,
        -1
      ],
      "type": "VEC4"
    },
    {
      "bufferView": 1,
      "byteOffset": 915200,
      "componentType": 5126,
      "count": 65534,
      "max": [
        0.87905997037887573,
        0.99787002801895142
      ],
      "min": [
        0.0020800000056624413,
        0.041420001536607742
      ],
      "type": "VEC2"
    },
    {
      "bufferView": 0,
      "byteOffset": 458724,
      "componentType": 5125,
      "count": 65538,
      "max": [
        65533
      ],
      "min": [
        0
      ],
      "type": "SCALAR"
    },
    {
      "bufferView": 2,
      "byteOffset": 4318416,
      "componentType": 5126,
      "count": 40757,
      "max": [
        3.5229299068450928,
        5.1426501274108887,
        12.972060203552246
      ],
      "min": [
        -4.862760066986084,
        -7.0539097785949707,
        -12.054960250854492
      ],
      "type": "VEC3"
    },
    {
      "bufferView": 2,
      "byteOffset": 4807500,
      "componentType": 5126,
      "count": 40757,
      "max": [
        0.99999439716339111,
        0.99999082088470459,
        0.99998986721038818
      ],
      "min": [
        -0.99993109703063965,
        -0.9999241828918457,
        -0.90472805500030518
      ],
      "type": "VEC3"
    },
    {
      "bufferView": 3,
      "byteOffset": 2878944,
      "componentType": 5126,
      "count": 40757,
      "max": [
        0.95780825614929199,
        0.88410705327987671,
        0.79572266340255737,
        1
      ],
      "min": [
        -0.93164187669754028,
        -0.99238091707229614,
        -0.99999797344207764,
        -1
      ],
      "type": "VEC4"
    },
    {
      "bufferView": 1,
      "byteOffset": 1439472,
      "componentType": 5126,
      "count": 40757,
      "max": [
        0.87913000583648682,
        0.99443000555038452
      ],
      "min": [
        0.0019900000188499689,
        0.049759998917579651
      ],
      "type": "VEC2"
    },
    {
      "bufferView": 0,
      "byteOffset": 720876,
      "componentType": 5125,
      "count": 41085,
      "max": [
        40756
      ],
      "min": [
        0
      ],
      "type": "SCALAR"
    },
    {
      "bufferView": 2,
      "byteOffset": 5296584,
      "componentType": 5126,
      "count": 216,
      "max": [
        3.1698598861694336,
        4.994420051574707,
        -0.41108998656272888
      ],
      "min": [
        -5.000770092010498,
        -7.0121798515319824,
        -11.444270133972168
      ],
      "type": "VEC3"
    },
    {
      "bufferView": 2,
      "byteOffset": 5299176,
      "componentType": 5126,
      "count": 216,
      "max": [
        0.88223052024841309,
        0.76608896255493164,
        -0.45668026804924011
      ],
      "min": [
        -0.79165256023406982,
        -0.63070237636566162,
        -0.93856459856033325
      ],
      "type": "VEC3"
    },
    {
      "bufferView": 3,
      "byteOffset": 3531056,
      "componentType": 5126,
      "count": 216,
      "max": [
        0.9439537525177002,
        0.99149149656295776,
        0.73059791326522827,
        1
      ],
      "min": [
        -0.9493485689163208,
        -0.98353070020675659,
        -0.81208401918411255,
        1
      ],
      "type": "VEC4"
    },
    {
      "bufferView": 0,
      "byteOffset": 885216,
      "componentType": 5125,
      "count": 216,
      "max": [
        215
      ],
      "min": [
        0
      ],
      "type": "SCALAR"
    }
  ],
  "asset": {
    "generator": "Sketchfab (OSG glTF plugin)",
    "version": "2.0"
  },
  "bufferViews": [
    {
      "buffer": 0,
      "byteLength": 886080,
      "byteOffset": 0,
      "name": "floatBufferViews",
      "target": 34963
    },
    {
      "buffer": 0,
      "byteLength": 1765528,
      "byteOffset": 886080,
      "byteStride": 8,
      "name": "floatBufferViews",
      "target": 34962
    },
    {
      "buffer": 0,
      "byteLength": 5301768,
      "byteOffset": 2651608,
      "byteStride": 12,
      "name": "floatBufferViews",
      "target": 34962
    },
    {
      "buffer": 0,
      "byteLength": 3534512,
      "byteOffset": 7953376,
      "byteStride": 16,
      "name": "floatBufferViews",
      "target": 34962
    }
  ],
  "buffers": [
    {
      "byteLength": 11487888,
      "uri": "scene.bin"
    }
  ],
  "images": [
    {
      "uri": "textures/Texture_0_baseColor.jpeg"
    },
    {
      "uri": "textures/Texture_1_baseColor.jpeg"
    }
  ],
  "materials": [
    {
      "doubleSided": true,
      "emissiveFactor": [
        0,
        0,
        0
      ],
      "name": "Texture_1",
      "pbrMetallicRoughness": {
        "baseColorFactor": [
          1,
          1,
          1,
          1
        ],
        "baseColorTexture": {
          "index": 1,
          "texCoord": 0
        },
        "metallicFactor": 0,
        "roughnessFactor": 0.59999999999999998
      }
    },
    {
      "doubleSided": true,
      "emissiveFactor": [
        0,
        0,
        0
      ],
      "name": "Texture_0",
      "pbrMetallicRoughness": {
        "baseColorFactor": [
          1,
          1,
          1,
          1
        ],
        "baseColorTexture": {
          "index": 0,
          "texCoord": 0
        },
        "metallicFactor": 0,
        "roughnessFactor": 0.59999999999999998
      }
    },
    {
      "doubleSided": true,
      "emissiveFactor": [
        0,
        0,
        0
      ],
      "name": "Untextured",
      "pbrMetallicRoughness": {
        "baseColorFactor": [
          0.50196099279999995,
          0.50196099279999995,
          0.50196099279999995,
          1
        ],
        "metallicFactor": 0,
        "roughnessFactor": 0.59999999999999998
      }
    }
  ],
  "meshes": [
    {
      "name": "mesh_0",
      "primitives": [
        {
          "attributes": {
            "NORMAL": 1,
            "POSITION": 0,
            "TANGENT": 2,
            "TEXCOORD_0": 3
          },
          "indices": 4,
          "material": 0,
          "mode": 4
        }
      ]
    },
    {
      "name": "mesh_1",
      "primitives": [
        {
          "attributes": {
            "NORMAL": 6,
            "POSITION": 5,
            "TANGENT": 7,
            "TEXCOORD_0": 8
          },
          "indices": 9,
          "material": 1,
          "mode": 4
        }
      ]
    },
    {
      "name": "mesh_1",
      "primitives": [
        {
          "attributes": {
            "NORMAL": 11,
            "POSITION": 10,
            "TANGENT": 12,
            "TEXCOORD_0": 13
          },
          "indices": 14,
          "material": 1,
          "mode": 4
        }
      ]
    },
    {
      "name": "mesh_1",
      "primitives": [
        {
          "attributes": {
            "NORMAL": 16,
            "POSITION": 15,
            "TANGENT": 17,
            "TEXCOORD_0": 18
          },
          "indices": 19,
          "material": 1,
          "mode": 4
        }
      ]
    },
    {
      "name": "mesh_2",
      "primitives": [
        {
          "attributes": {
            "NORMAL": 21,
            "POSITION": 20,
            "TANGENT": 22
          },
          "indices": 23,
          "material": 2,
          "mode": 4
        }
      ]
    }
  ],
  "nodes": [
    {
      "children": [
        1
      ],
      "name": "RootNode (gltf orientation matrix)",
      "rotation": [
        -0.70710678118654746,
        -0,
        -0,
        0.70710678118654757
      ]
    },
    {
      "children": [
        2
      ],
      "matrix": [
        0.99866318702697754,
        0.0020745163783431053,
        -0.051648404449224472,
        0,
        -0.0024672644212841988,
        0.99996852874755859,
        -0.0075416672043502331,
        0,
        0.051631134003400803,
        0.0076590157113969326,
        0.99863684177398682,
        0,
        -0.0052816290408372879,
        -0.0021138039883226156,
        0.030390799045562744,
        1
      ],
      "name": "RootNode (model correction matrix)"
    },
    {
      "children": [
        3,
        5
      ],
      "name": "Root"
    },
    {
      "children": [
        4
      ],
      "matrix": [
        -0.29086000000000006,
        0.95517000000000007,
        -0.05519000000000001,
        0,
        -0.77110000000000001,
        -0.19988000000000003,
        0.60452000000000006,
        0,
        0.56639000000000006,
        0.21839000000000003,
        0.7946700000000001,
        0,
        4.0762500000000008,
        1.00545,
        5.9038600000000008,
        1
      ],
      "name": "Lamp"
    },
    {
      "name": "Lamp"
    },
    {
      "children": [
        6
      ],
      "matrix": [
        0.23895000000000002,
        0.97067000000000003,
        0.026550000000000008,
        0,
        -0.96389000000000014,
        0.24042000000000002,
        -0.11453000000000002,
        0,
        -0.11755000000000002,
        0.0017800000000000005,
        0.99307000000000001,
        0,
        0,
        0,
        0,
        1
      ],
      "name": "mesh"
    },
    {
      "children": [
        7,
        8,
        9,
        10,
        11
      ],
      "name": "Geode"
    },
    {
      "mesh": 0,
      "name": "mesh_0"
    },
    {
      "mesh": 1,
      "name": "mesh_1"
    },
    {
      "mesh": 2,
      "name": "mesh_1"
    },
    {
      "mesh": 3,
      "name": "mesh_1"
    },
    {
      "mesh": 4,
      "name": "mesh_2"
    }
  ],
  "samplers": [
    {
      "magFilter": 9729,
      "minFilter": 9987,
      "wrapS": 10497,
      "wrapT": 10497
    }
  ],
  "scene": 0,
  "scenes": [
    {
      "name": "OSG_Scene",
      "nodes": [
        0
      ]
    }
  ],
  "textures": [
    {
      "sampler": 0,
      "source": 0
    },
    {
      "sampler": 0,
      "source": 1
    }
  ]
}

