{
  "accessors": [
    {
      "bufferView": 2,
      "componentType": 5126,
      "count": 65532,
      "max": [
        4.0964832305908203,
        4.5402407646179199,
        2.7632129192352295
      ],
      "min": [
        -0.22219300270080566,
        2.1870400905609131,
        -0.095760002732276917
      ],
      "type": "VEC3"
    },
    {
      "bufferView": 2,
      "byteOffset": 786384,
      "componentType": 5126,
      "count": 65532,
      "max": [
        0.99998849630355835,
        0.99679082632064819,
        0.99990957975387573
      ],
      "min": [
        -0.9999922513961792,
        -0.99997395277023315,
        -0.99949127435684204
      ],
      "type": "VEC3"
    },
    {
      "bufferView": 3,
      "componentType": 5126,
      "count": 65532,
      "max": [
        0.9999503493309021,
        0.99997603893280029,
        0.99968373775482178,
        1
      ],
      "min": [
        -0.99999666213989258,
        -0.99999922513961792,
        -0.99999725818634033,
        -1
      ],
      "type": "VEC4"
    },
    {
      "bufferView": 1,
      "componentType": 5126,
      "count": 65532,
      "max": [
        0.99627500772476196,
        0.99976897239685059
      ],
      "min": [
        0.0080129997804760933,
        0.0044630002230405807
      ],
      "type": "VEC2"
    },
    {
      "bufferView": 0,
      "componentType": 5125,
      "count": 333861,
      "max": [
        65531
      ],
      "min": [
        0
      ],
      "type": "SCALAR"
    },
    {
      "bufferView": 2,
      "byteOffset": 1572768,
      "componentType": 5126,
      "count": 65532,
      "max": [
        4.0856661796569824,
        4.8739218711853027,
        3.3496770858764648
      ],
      "min": [
        -1.1436280012130737,
        1.9633200168609619,
        -0.28823599219322205
      ],
      "type": "VEC3"
    },
    {
      "bufferView": 2,
      "byteOffset": 2359152,
      "componentType": 5126,
      "count": 65532,
      "max": [
        0.99998259544372559,
        0.99811899662017822,
        0.99992096424102783
      ],
      "min": [
        -0.99998188018798828,
        -0.99999779462814331,
        -0.99985361099243164
      ],
      "type": "VEC3"
    },
    {
      "bufferView": 3,
      "byteOffset": 1048512,
      "componentType": 5126,
      "count": 65532,
      "max": [
        0.99998831748962402,
        0.99999594688415527,
        0.99996757507324219,
        1
      ],
      "min": [
        -0.99999666213989258,
        -0.99997925758361816,
        -0.99998354911804199,
        -1
      ],
      "type": "VEC4"
    },
    {
      "bufferView": 1,
      "byteOffset": 524256,
      "componentType": 5126,
      "count": 65532,
      "max": [
        0.9965130090713501,
        0.99937999248504639
      ],
      "min": [
        0.0039059999398887157,
        0.0031590000726282597
      ],
      "type": "VEC2"
    },
    {
      "bufferView": 0,
      "byteOffset": 1335444,
      "componentType": 5125,
      "count": 301947,
      "max": [
        65531
      ],
      "min": [
        0
      ],
      "type": "SCALAR"
    },
    {
      "bufferView": 2,
      "byteOffset": 3145536,
      "componentType": 5126,
      "count": 16184,
      "max": [
        4.1046237945556641,
        4.8244719505310059,
        3.3061249256134033
      ],
      "min": [
        -1.2241829633712769,
        1.9560680389404297,
        -0.16290099918842316
      ],
      "type": "VEC3"
    },
    {
      "bufferView": 2,
      "byteOffset": 3339744,
      "componentType": 5126,
      "count": 16184,
      "max": [
        0.99992024898529053,
        0.9698365330696106,
        0.99907010793685913
      ],
      "min": [
        -0.99901431798934937,
        -0.99995040893554688,
        -0.99853372573852539
      ],
      "type": "VEC3"
    },
    {
      "bufferView": 3,
      "byteOffset": 2097024,
      "componentType": 5126,
      "count": 16184,
      "max": [
        0.99997305870056152,
        0.99792492389678955,
        0.99996757507324219,
        1
      ],
      "min": [
        -0.99998950958251953,
        -0.99722164869308472,
        -0.99995207786560059,
        -1
      ],
      "type": "VEC4"
    },
    {
      "bufferView": 1,
      "byteOffset": 1048512,
      "componentType": 5126,
      "count": 16184,
      "max": [
        0.99330300092697144,
        0.99916601181030273
      ],
      "min": [
        0.012106000445783138,
        0.0034970000851899385
      ],
      "type": "VEC2"
    },
    {
      "bufferView": 0,
      "byteOffset": 2543232,
      "componentType": 5125,
      "count": 72672,
      "max": [
        16183
      ],
      "min": [
        0
      ],
      "type": "SCALAR"
    }
  ],
  "asset": {
    "generator": "Sketchfab (OSG glTF plugin)",
    "version": "2.0"
  },
  "bufferViews": [
    {
      "buffer": 0,
      "byteLength": 2833920,
      "byteOffset": 0,
      "name": "floatBufferViews",
      "target": 34963
    },
    {
      "buffer": 0,
      "byteLength": 1177984,
      "byteOffset": 2833920,
      "byteStride": 8,
      "name": "floatBufferViews",
      "target": 34962
    },
    {
      "buffer": 0,
      "byteLength": 3533952,
      "byteOffset": 4011904,
      "byteStride": 12,
      "name": "floatBufferViews",
      "target": 34962
    },
    {
      "buffer": 0,
      "byteLength": 2355968,
      "byteOffset": 7545856,
      "byteStride": 16,
      "name": "floatBufferViews",
      "target": 34962
    }
  ],
  "buffers": [
    {
      "byteLength": 9901824,
      "uri": "scene.bin"
    }
  ],
  "extensionsRequired": [
    "KHR_materials_pbrSpecularGlossiness"
  ],
  "extensionsUsed": [
    "KHR_materials_pbrSpecularGlossiness"
  ],
  "images": [
    {
      "uri": "textures/material_0_diffuse.jpeg"
    }
  ],
  "materials": [
    {
      "doubleSided": true,
      "emissiveFactor": [
        0,
        0,
        0
      ],
      "extensions": {
        "KHR_materials_pbrSpecularGlossiness": {
          "diffuseFactor": [
            1,
            1,
            1,
            1
          ],
          "diffuseTexture": {
            "index": 0,
            "texCoord": 0
          },
          "glossinessFactor": 0,
          "specularFactor": [
            0,
            0,
            0
          ]
        }
      },
      "name": "material_0",
      "occlusionFactor": 1
    }
  ],
  "meshes": [
    {
      "primitives": [
        {
          "attributes": {
            "NORMAL": 1,
            "POSITION": 0,
            "TANGENT": 2,
            "TEXCOORD_0": 3
          },
          "indices": 4,
          "material": 0,
          "mode": 4
        }
      ]
    },
    {
      "primitives": [
        {
          "attributes": {
            "NORMAL": 6,
            "POSITION": 5,
            "TANGENT": 7,
            "TEXCOORD_0": 8
          },
          "indices": 9,
          "material": 0,
          "mode": 4
        }
      ]
    },
    {
      "primitives": [
        {
          "attributes": {
            "NORMAL": 11,
            "POSITION": 10,
            "TANGENT": 12,
            "TEXCOORD_0": 13
          },
          "indices": 14,
          "material": 0,
          "mode": 4
        }
      ]
    }
  ],
  "nodes": [
    {
      "children": [
        1
      ],
      "name": "RootNode (gltf orientation matrix)",
      "rotation": [
        -0.70710678118654746,
        -0,
        -0,
        0.70710678118654757
      ]
    },
    {
      "children": [
        2
      ],
      "name": "RootNode (model correction matrix)"
    },
    {
      "children": [
        6
      ],
      "name": "model.obj.cleaner.gles"
    },
    {
      "mesh": 0,
      "name": ""
    },
    {
      "mesh": 1,
      "name": ""
    },
    {
      "mesh": 2,
      "name": ""
    },
    {
      "children": [
        3,
        4,
        5
      ],
      "name": "Geode"
    }
  ],
  "samplers": [
    {
      "magFilter": 9729,
      "minFilter": 9987,
      "wrapS": 10497,
      "wrapT": 10497
    }
  ],
  "scene": 0,
  "scenes": [
    {
      "name": "OSG_Scene",
      "nodes": [
        0
      ]
    }
  ],
  "textures": [
    {
      "sampler": 0,
      "source": 0
    }
  ]
}

